HIERARCHY
ROOT Hips
{
    OFFSET 0.000000 0.000000 0.000000
    CHANNELS 6 Xposition Yposition Zposition Zrotation Xrotation Yrotation
    JOINT Chest
    {
        OFFSET -0.000000 0.078598 0.000000
        CHANNELS 3 Zrotation Xrotation Yrotation
        JOINT Chest2
        {
            OFFSET -0.000000 0.230468 0.000000
            CHANNELS 3 Zrotation Xrotation Yrotation
            JOINT Neck
            {
                OFFSET -0.000000 0.249638 0.000000
                CHANNELS 3 Zrotation Xrotation Yrotation
                JOINT Head
                {
                    OFFSET -0.000000 0.103998 0.019170
                    CHANNELS 3 Zrotation Xrotation Yrotation
                    End Site
                    {
                        OFFSET -0.000000 0.191701 0.000000
                    }
                }
            }
            JOINT LeftCollar
            {
                OFFSET 0.038274 0.205938 -0.001496
                CHANNELS 3 Zrotation Xrotation Yrotation
                JOINT LeftShoulder
                {
                    OFFSET 0.132388 0.000000 0.000000
                    CHANNELS 3 Zrotation Xrotation Yrotation
                    JOINT LeftElbow
                    {
                        OFFSET 0.250301 0.000000 0.000000
                        CHANNELS 3 Zrotation Xrotation Yrotation
                        JOINT LeftWrist
                        {
                            OFFSET 0.285291 0.000000 0.000000
                            CHANNELS 3 Zrotation Xrotation Yrotation
                            End Site
                            {
                                OFFSET 0.000000 -0.143776 0.000000
                            }
                        }
                    }
                }
            }
            JOINT RightCollar
            {
                OFFSET -0.038406 0.205938 -0.001496
                CHANNELS 3 Zrotation Xrotation Yrotation
                JOINT RightShoulder
                {
                    OFFSET -0.132388 0.000000 0.000000
                    CHANNELS 3 Zrotation Xrotation Yrotation
                    JOINT RightElbow
                    {
                        OFFSET -0.250301 0.000000 0.000000
                        CHANNELS 3 Zrotation Xrotation Yrotation
                        JOINT RightWrist
                        {
                            OFFSET -0.285291 0.000000 0.000000
                            CHANNELS 3 Zrotation Xrotation Yrotation
                            End Site
                            {
                                OFFSET -0.000000 -0.143776 0.000000
                            }
                        }
                    }
                }
            }
        }
    }
    JOINT LeftHip
    {
        OFFSET 0.095851 0.000000 0.000000
        CHANNELS 3 Zrotation Xrotation Yrotation
        JOINT LeftKnee
        {
            OFFSET -0.000000 -0.406444 0.000000
            CHANNELS 3 Zrotation Xrotation Yrotation
            JOINT LeftAnkle
            {
                OFFSET -0.000000 -0.408443 0.000000
                CHANNELS 3 Zrotation Xrotation Yrotation
                JOINT LeftToe
                {
                    OFFSET -0.000000 -0.062303 0.143776
                    CHANNELS 3 Zrotation Xrotation Yrotation
                    End Site
                    {
                        OFFSET -0.000000 0.000000 0.038340
                    }
                }
            }
        }
    }
    JOINT RightHip
    {
        OFFSET -0.095851 0.000000 0.000000
        CHANNELS 3 Zrotation Xrotation Yrotation
        JOINT RightKnee
        {
            OFFSET -0.000000 -0.406444 0.000000
            CHANNELS 3 Zrotation Xrotation Yrotation
            JOINT RightAnkle
            {
                OFFSET -0.000000 -0.408443 0.000000
                CHANNELS 3 Zrotation Xrotation Yrotation
                JOINT RightToe
                {
                    OFFSET -0.000000 -0.062303 0.143776
                    CHANNELS 3 Zrotation Xrotation Yrotation
                    End Site
                    {
                        OFFSET -0.000000 0.000000 0.038340
                    }
                }
            }
        }
    }
}
MOTION
Frames:    4
Frame Time:    0.016667
0.002661    0.432096    0.672543    12.221812    -0.450297    -170.377808    7.483812    40.135002    14.178758    -10.270686    9.364932    6.524520    -8.171688    15.652407    -6.861456    7.426207    -2.347388    -10.100982    4.824328    7.726940    -11.319705    -48.545826    37.947372    -15.973227    -8.353916    -23.663044    -41.329876    96.073952    -14.622738    27.302629    -9.747298    -10.292555    37.109661    25.679777    8.983528    20.578117    2.508293    -49.974785    12.779064    -59.882526    -3.098536    -49.321209    30.531401    -29.999382    -2.433547    164.108398    48.375984    173.294632    -19.849052    -17.381222    -4.843212    0.000000    0.000000    0.000000    -68.501625    -56.595200    -54.472775    134.883148    41.727734    -100.218498    -16.361179    -32.568481    -9.424063    0.000000    0.000000    0.000000    
0.002677    0.432163    0.672550    12.348798    -0.406275    -170.292725    7.384047    40.124943    14.075440    -10.124497    9.316136    6.458693    -7.675246    16.229795    -6.904065    7.247205    -3.254864    -9.973066    4.799539    7.968441    -11.316407    -48.545563    37.387569    -15.709750    -8.579140    -23.658251    -42.029549    96.213303    -14.900046    27.461430    -9.784648    -10.255634    36.579510    26.305521    9.049620    20.653011    3.096523    -50.133957    14.897656    -59.917149    -3.001662    -49.585957    32.336594    -28.786598    -3.221389    159.936646    51.670414    -124.672684    -26.465721    13.709296    -70.423416    0.000000    0.000000    0.000000    -68.394936    -56.415775    -54.442417    134.829514    41.672760    -100.043243    -16.213074    -32.500633    -9.366219    0.000000    0.000000    0.000000    
0.002830    0.432176    0.672422    12.508099    -0.343524    -170.254700    7.340813    40.304249    13.745522    -10.176244    8.857226    6.311119    -7.431630    16.767733    -6.683297    7.127034    -3.542770    -9.683468    4.715125    8.482946    -11.155619    -48.614452    37.066700    -15.261571    -8.618083    -24.096319    -42.684837    96.369926    -14.696363    27.961847    -9.603509    -9.963960    36.331173    27.144102    9.616647    20.465570    3.435223    -50.203217    17.832302    -60.250546    -2.510655    -49.879974    30.872580    -29.962313    -2.266734    164.308289    48.235649    173.594559    -19.600618    -17.610380    -4.606119    0.000000    0.000000    0.000000    -68.186272    -56.372551    -54.328373    134.802185    41.659630    -100.062050    -16.036268    -32.555702    -9.154836    0.000000    0.000000    0.000000    
0.003182    0.432128    0.672305    12.716500    -0.323397    -170.232193    7.105886    39.947559    13.725821    -10.078403    9.513945    6.313530    -6.555238    16.185503    -6.856378    6.757134    -3.452539    -9.552014    5.015995    8.050583    -10.817469    -49.078579    36.647636    -15.079918    -9.004662    -24.045824    -43.303459    96.583694    -14.060110    28.088503    -9.635352    -10.545347    35.388683    28.327572    10.041414    19.786278    5.099429    -49.757057    22.294546    -60.506889    -2.307014    -49.794910    32.798485    -28.758320    -2.972107    160.202164    51.495731    -124.944794    -26.552965    13.040069    -69.650726    0.000000    0.000000    0.000000    -68.000122    -56.469677    -54.293045    134.765518    41.685143    -100.172623    -15.784398    -32.482727    -9.036652    0.000000    0.000000    0.000000    
